<svg width="41" height="46" viewBox="0 0 41 46" fill="none" xmlns="http://www.w3.org/2000/svg">
<path d="M20.303 30.4588C19.9128 30.4597 19.5346 30.3078 19.2341 30.0296L9.21275 20.6988C8.87166 20.382 8.65716 19.9268 8.61644 19.4334C8.57572 18.9399 8.71212 18.4486 8.99562 18.0675C9.27912 17.6864 9.6865 17.4467 10.1282 17.4012C10.5698 17.3557 11.0095 17.5081 11.3506 17.8249L20.303 26.1853L29.2554 18.1235C29.4262 17.9684 29.6228 17.8527 29.8338 17.7828C30.0448 17.713 30.2661 17.6904 30.485 17.7164C30.7038 17.7424 30.9159 17.8165 31.1091 17.9344C31.3022 18.0523 31.4726 18.2117 31.6104 18.4034C31.7634 18.5953 31.8792 18.8204 31.9507 19.0646C32.0222 19.3088 32.0477 19.5669 32.0258 19.8227C32.0038 20.0785 31.9348 20.3265 31.8231 20.5511C31.7114 20.7757 31.5594 20.9721 31.3766 21.128L21.3552 30.1416C21.0461 30.3758 20.6756 30.4875 20.303 30.4588V30.4588Z" fill="#020202"/>
</svg>
