<svg width="50" height="56" viewBox="0 0 50 56" fill="none" xmlns="http://www.w3.org/2000/svg">
<path d="M24.9995 37.3236C24.5127 37.3247 24.041 37.1348 23.6662 36.7871L11.1662 25.1235C10.7407 24.7276 10.4732 24.1586 10.4224 23.5418C10.3716 22.9249 10.5417 22.3108 10.8953 21.8344C11.249 21.358 11.7571 21.0584 12.308 21.0016C12.8589 20.9447 13.4074 21.1352 13.8328 21.5311L24.9995 31.9817L36.1662 21.9044C36.3793 21.7106 36.6245 21.5659 36.8877 21.4786C37.1509 21.3913 37.4269 21.3631 37.6999 21.3956C37.9729 21.4281 38.2374 21.5207 38.4783 21.6681C38.7192 21.8154 38.9318 22.0147 39.1037 22.2543C39.2945 22.4941 39.439 22.7755 39.5281 23.0808C39.6173 23.3861 39.6492 23.7087 39.6218 24.0285C39.5944 24.3482 39.5083 24.6581 39.369 24.9389C39.2297 25.2196 39.04 25.4652 38.812 25.66L26.312 36.927C25.9264 37.2198 25.4643 37.3595 24.9995 37.3236Z" fill="#231F20"/>
</svg>
