<svg width="59" height="59" viewBox="0 0 59 59" fill="none" xmlns="http://www.w3.org/2000/svg">
<g clip-path="url(#clip0_148_13)">
<path d="M29.5 -0.0626831C13.1994 -0.0626831 -0.0645447 13.1976 -0.0645447 29.5C-0.0645447 45.8024 13.1994 59.0627 29.5 59.0627C45.8006 59.0627 59.0645 45.8024 59.0645 29.5C59.0645 13.1976 45.8006 -0.0626831 29.5 -0.0626831ZM29.5 57.0936C14.2854 57.0936 1.90827 44.7146 1.90827 29.5C1.90827 14.2854 14.2854 1.90644 29.5 1.90644C44.7146 1.90644 57.0917 14.2854 57.0917 29.5C57.0917 44.7146 44.7146 57.0936 29.5 57.0936Z" fill="#F8F8F8"/>
<path d="M35.9531 12.9063H31.034C24.7689 12.8436 23.9687 16.721 23.9687 20.9174V23.9688H21.2031C21.0781 23.9521 20.9509 23.9644 20.8315 24.0048C20.712 24.0453 20.6035 24.1127 20.5143 24.2018C20.4251 24.291 20.3577 24.3996 20.3173 24.519C20.2769 24.6385 20.2645 24.7656 20.2812 24.8906V30.4219C20.2645 30.5469 20.2769 30.6741 20.3173 30.7935C20.3577 30.913 20.4251 31.0215 20.5143 31.1107C20.6035 31.1999 20.712 31.2673 20.8315 31.3077C20.9509 31.3481 21.0781 31.3605 21.2031 31.3438H23.9687V45.1719C23.9533 45.2971 23.9668 45.4242 24.0081 45.5434C24.0493 45.6627 24.1173 45.7709 24.2068 45.8598C24.2963 45.9488 24.4049 46.0161 24.5243 46.0566C24.6438 46.0972 24.771 46.1099 24.8961 46.0938H30.5288C31.0727 46.1565 31.5133 45.7158 31.34 45.1719L31.3437 31.3438H35.9531C36.0781 31.3605 36.2053 31.3481 36.3247 31.3077C36.4442 31.2673 36.5527 31.1999 36.6419 31.1107C36.731 31.0215 36.7985 30.913 36.8389 30.7935C36.8793 30.6741 36.8917 30.5469 36.875 30.4219V24.8906C36.8917 24.7656 36.8793 24.6385 36.8389 24.519C36.7985 24.3996 36.731 24.291 36.6419 24.2018C36.5527 24.1127 36.4442 24.0453 36.3247 24.0048C36.2053 23.9644 36.0781 23.9521 35.9531 23.9688H31.3382L31.3437 21.2031C31.5226 20.025 31.5226 20.2167 32.6159 20.2813H35.9144C36.1706 20.2241 36.4435 20.2555 36.6353 20.0692C36.827 19.883 36.9376 19.6286 36.8731 19.3594V13.8281C36.8901 13.7032 36.8781 13.5761 36.8379 13.4566C36.7977 13.3371 36.7305 13.2286 36.6414 13.1393C36.5524 13.0501 36.4439 12.9827 36.3245 12.9422C36.2051 12.9018 36.078 12.8895 35.9531 12.9063V12.9063ZM34.9667 18.3343L32.6546 18.2458C29.7913 18.2458 29.5516 19.8 29.5516 21.3912L29.5442 24.887C29.544 25.0164 29.5693 25.1446 29.6186 25.2643C29.668 25.384 29.7405 25.4927 29.8319 25.5843C29.9234 25.676 30.032 25.7486 30.1516 25.7982C30.2711 25.8478 30.3993 25.8734 30.5288 25.8734H35.0312V29.4355H30.5325C30.2712 29.4355 30.0205 29.5392 29.8356 29.7237C29.6507 29.9083 29.5465 30.1588 29.5461 30.42L29.5442 44.25H25.8125V30.4219C25.8125 29.878 25.4419 29.4373 24.8961 29.4373H22.125V25.8752H24.8961C25.0255 25.8754 25.1536 25.8501 25.2732 25.8007C25.3928 25.7514 25.5015 25.679 25.5931 25.5876C25.7774 25.4014 25.8106 25.1506 25.8106 24.8888V20.9155C25.8106 16.7818 26.6458 14.8127 31.0321 14.8127H34.9648V18.3343H34.9667Z" fill="#F8F8F8"/>
</g>
<defs>
<clipPath id="clip0_148_13">
<rect width="59" height="59" fill="white"/>
</clipPath>
</defs>
</svg>
