<svg width="59" height="59" viewBox="0 0 59 59" fill="none" xmlns="http://www.w3.org/2000/svg">
<g clip-path="url(#clip0_148_17)">
<path d="M29.5 -0.0626831C13.1994 -0.0626831 -0.0645142 13.1976 -0.0645142 29.5C-0.0645142 45.8024 13.1994 59.0627 29.5 59.0627C45.8006 59.0627 59.0645 45.8024 59.0645 29.5C59.0645 13.1976 45.8006 -0.0626831 29.5 -0.0626831ZM29.5 57.0936C14.2854 57.0936 1.9083 44.7146 1.9083 29.5C1.9083 14.2854 14.2854 1.90644 29.5 1.90644C44.7146 1.90644 57.0917 14.2854 57.0917 29.5C57.0917 44.7146 44.7146 57.0936 29.5 57.0936Z" fill="#F8F8F8"/>
<path d="M45.714 20.3661C45.9185 19.9875 46.087 19.5906 46.2173 19.1805C46.2776 18.9903 46.2788 18.7863 46.2208 18.5954C46.1628 18.4045 46.0482 18.2357 45.8922 18.1112C45.7362 17.9868 45.5461 17.9126 45.3471 17.8984C45.148 17.8843 44.9494 17.9308 44.7773 18.0319C43.8326 18.5931 42.8099 19.0113 41.7425 19.2727C40.4469 18.1034 38.7642 17.4551 37.0188 17.4529C36.0706 17.4537 35.1323 17.6459 34.2602 18.018C33.3881 18.3901 32.6 18.9345 31.9434 19.6185C31.2867 20.3026 30.7749 21.1121 30.4387 21.9987C30.1025 22.8854 29.9488 23.8307 29.9868 24.7782C25.8402 24.2562 22.0537 22.1579 19.4129 18.9187C19.3117 18.796 19.1824 18.6995 19.0359 18.6375C18.8895 18.5754 18.7302 18.5496 18.5717 18.5623C18.4131 18.575 18.26 18.6257 18.1252 18.7102C17.9905 18.7948 17.8782 18.9106 17.7977 19.0478C17.193 20.0857 16.8644 21.2612 16.8431 22.4622C16.8218 23.6632 17.1085 24.8497 17.6761 25.9084C17.5369 25.9319 17.4032 25.9806 17.2815 26.0522C17.1324 26.1473 17.0097 26.2783 16.9246 26.4333C16.8395 26.5883 16.7949 26.7622 16.7947 26.939C16.7947 29.0317 17.7258 30.9529 19.2267 32.2583L19.1621 32.3228C19.0488 32.451 18.9709 32.6064 18.9359 32.7739C18.901 32.9414 18.9104 33.1151 18.963 33.2778C19.276 34.2542 19.7985 35.1503 20.4941 35.9035C21.1896 36.6567 22.0414 37.2488 22.9897 37.6383C21.042 38.5885 18.8623 38.959 16.7099 38.7058C16.4887 38.6833 16.2662 38.7348 16.0774 38.8522C15.8885 38.9697 15.744 39.1464 15.6664 39.3548C15.5918 39.5648 15.5904 39.7938 15.6624 40.0046C15.7344 40.2155 15.8754 40.3958 16.0628 40.5164C18.9888 42.3944 22.3928 43.3921 25.8697 43.3908C37.2641 43.3908 44.0749 34.1352 44.0749 25.1875L44.073 24.8851C45.1773 24.023 46.1365 22.9897 46.9142 21.8245C47.032 21.6483 47.0899 21.4389 47.0794 21.2273C47.0689 21.0156 46.9905 20.813 46.8559 20.6494C46.7212 20.4858 46.5374 20.3699 46.3318 20.3189C46.1261 20.2678 45.9095 20.2844 45.714 20.3661V20.3661ZM42.4966 23.6018C42.3628 23.6981 42.2553 23.8263 42.1838 23.9747C42.1123 24.1232 42.0791 24.2872 42.0873 24.4518C42.0984 24.6952 42.1039 24.9423 42.1039 25.1856C42.1039 33.1654 36.0324 41.4198 25.8715 41.4198C24.0593 41.4207 22.2599 41.1165 20.5486 40.5201C22.5981 40.1273 24.5234 39.2484 26.1628 37.9573C26.3224 37.8315 26.4393 37.6594 26.4973 37.4647C26.5554 37.2699 26.552 37.062 26.4874 36.8693C26.4228 36.6766 26.3003 36.5086 26.1366 36.3881C25.9729 36.2677 25.776 36.2008 25.5728 36.1965C24.7779 36.1813 23.9976 35.9795 23.2949 35.6074C22.5923 35.2352 21.9869 34.7032 21.5277 34.0541C21.9941 34.0227 22.4514 33.9453 22.8957 33.8254C23.1108 33.7679 23.3 33.6391 23.4324 33.4602C23.5649 33.2813 23.6328 33.0628 23.6251 32.8403C23.6174 32.6178 23.5346 32.4045 23.39 32.2352C23.2455 32.0658 23.0479 31.9505 22.8293 31.9079C21.9315 31.7253 21.1002 31.302 20.4243 30.6833C19.7485 30.0646 19.2536 29.2739 18.9925 28.3956C19.4829 28.5191 19.9863 28.591 20.4896 28.6076C20.9229 28.6058 21.3248 28.3403 21.4594 27.9236C21.594 27.5069 21.4355 27.0478 21.0686 26.8044C20.201 26.2264 19.5331 25.3947 19.1559 24.4229C18.7787 23.4511 18.7107 22.3865 18.9612 21.3746C22.1638 24.6607 26.4884 26.6176 31.0709 26.8542C31.3954 26.8561 31.6793 26.7399 31.8766 26.5021C32.0739 26.2642 32.1495 25.9489 32.0794 25.6466C31.8273 24.5606 31.9401 23.4218 32.4003 22.4064C32.8606 21.391 33.6428 20.5556 34.6257 20.0295C35.6086 19.5034 36.7375 19.3159 37.8377 19.4961C38.9379 19.6762 39.9481 20.214 40.7119 21.0261C40.8263 21.1483 40.97 21.2393 41.1294 21.2905C41.2887 21.3418 41.4585 21.3517 41.6227 21.3193C41.9269 21.2584 42.2274 21.1884 42.5243 21.1073C42.3905 21.2074 42.2514 21.3004 42.1076 21.3857C41.9164 21.5028 41.7708 21.6815 41.6948 21.8925C41.6188 22.1034 41.617 22.334 41.6895 22.5461C41.7621 22.7582 41.9048 22.9393 42.0941 23.0595C42.2833 23.1797 42.5079 23.2318 42.7308 23.2073L43.0663 23.1649C42.8816 23.3171 42.6915 23.4628 42.4966 23.6018V23.6018Z" fill="#F8F8F8"/>
</g>
<defs>
<clipPath id="clip0_148_17">
<rect width="59" height="59" fill="white"/>
</clipPath>
</defs>
</svg>
