<svg width="59" height="59" viewBox="0 0 59 59" fill="none" xmlns="http://www.w3.org/2000/svg">
<path d="M12.7408 51.1729C7.92694 46.6852 4.91669 40.2879 4.91669 33.1875C4.91669 19.6105 15.923 8.60416 29.5 8.60416C43.077 8.60416 54.0834 19.6105 54.0834 33.1875C54.0834 40.2879 51.0731 46.6852 46.2592 51.1729" stroke="white" stroke-width="4" stroke-linecap="round" stroke-linejoin="round"/>
<path d="M18.6066 44.878C15.4776 41.961 13.5209 37.8028 13.5209 33.1875C13.5209 24.3624 20.675 17.2083 29.5 17.2083C38.3251 17.2083 45.4792 24.3624 45.4792 33.1875C45.4792 37.8028 43.5225 41.961 40.3935 44.878" stroke="white" stroke-width="4" stroke-linecap="round" stroke-linejoin="round"/>
<path d="M24.4722 38.5832C23.0281 37.2369 22.125 35.3176 22.125 33.1875C22.125 29.1144 25.4269 25.8125 29.5 25.8125C33.5731 25.8125 36.875 29.1144 36.875 33.1875C36.875 35.3176 35.9719 37.2369 34.5278 38.5832" stroke="white" stroke-width="4" stroke-linecap="round" stroke-linejoin="round"/>
</svg>
