<svg width="59" height="59" viewBox="0 0 59 59" fill="none" xmlns="http://www.w3.org/2000/svg">
<path d="M29.5 18.8984C27.4032 18.8984 25.3535 19.5202 23.6101 20.6851C21.8667 21.85 20.5078 23.5058 19.7054 25.443C18.903 27.3801 18.6931 29.5118 19.1021 31.5683C19.5112 33.6248 20.5209 35.5138 22.0036 36.9964C23.4862 38.4791 25.3752 39.4888 27.4317 39.8979C29.4882 40.3069 31.6199 40.097 33.557 39.2946C35.4942 38.4922 37.15 37.1333 38.3149 35.3899C39.4798 33.6465 40.1016 31.5968 40.1016 29.5C40.1016 26.6883 38.9846 23.9917 36.9964 22.0036C35.0083 20.0154 32.3117 18.8984 29.5 18.8984V18.8984ZM29.5 37.3359C27.9502 37.3359 26.4352 36.8764 25.1466 36.0153C23.858 35.1543 22.8536 33.9305 22.2605 32.4987C21.6675 31.0669 21.5123 29.4913 21.8146 27.9713C22.117 26.4513 22.8633 25.055 23.9592 23.9592C25.055 22.8633 26.4513 22.117 27.9713 21.8146C29.4913 21.5123 31.0669 21.6675 32.4987 22.2605C33.9305 22.8536 35.1543 23.858 36.0153 25.1466C36.8764 26.4352 37.3359 27.9502 37.3359 29.5C37.3299 31.5763 36.5023 33.5659 35.0341 35.0341C33.5659 36.5023 31.5763 37.3299 29.5 37.3359ZM39.6406 6.91406H19.3594C16.0587 6.91406 12.8932 8.22526 10.5592 10.5592C8.22526 12.8932 6.91406 16.0587 6.91406 19.3594V39.6406C6.91406 42.9413 8.22526 46.1068 10.5592 48.4408C12.8932 50.7747 16.0587 52.0859 19.3594 52.0859H39.6406C42.9413 52.0859 46.1068 50.7747 48.4408 48.4408C50.7747 46.1068 52.0859 42.9413 52.0859 39.6406V19.3594C52.0859 16.0587 50.7747 12.8932 48.4408 10.5592C46.1068 8.22526 42.9413 6.91406 39.6406 6.91406V6.91406ZM49.3203 39.6406C49.3203 42.2078 48.3005 44.6699 46.4852 46.4852C44.6699 48.3005 42.2078 49.3203 39.6406 49.3203H19.3594C16.7922 49.3203 14.3301 48.3005 12.5148 46.4852C10.6995 44.6699 9.67969 42.2078 9.67969 39.6406V19.3594C9.67969 16.7922 10.6995 14.3301 12.5148 12.5148C14.3301 10.6995 16.7922 9.67969 19.3594 9.67969H39.6406C42.2078 9.67969 44.6699 10.6995 46.4852 12.5148C48.3005 14.3301 49.3203 16.7922 49.3203 19.3594V39.6406ZM43.7891 17.5156C43.7891 17.9714 43.6539 18.417 43.4007 18.796C43.1474 19.175 42.7875 19.4704 42.3663 19.6449C41.9452 19.8193 41.4818 19.865 41.0348 19.776C40.5877 19.6871 40.177 19.4676 39.8547 19.1453C39.5324 18.823 39.3129 18.4123 39.224 17.9652C39.135 17.5182 39.1807 17.0548 39.3551 16.6337C39.5296 16.2125 39.825 15.8526 40.204 15.5993C40.583 15.3461 41.0286 15.2109 41.4844 15.2109C42.0956 15.2109 42.6818 15.4538 43.114 15.886C43.5462 16.3182 43.7891 16.9044 43.7891 17.5156Z" fill="#F8F8F8"/>
</svg>
