<svg width="51" height="51" viewBox="0 0 51 51" fill="none" xmlns="http://www.w3.org/2000/svg">
<path d="M35.8003 0.916626H15.1994C6.25109 0.916626 0.916504 6.25121 0.916504 15.1995V35.7758C0.916504 44.7487 6.25109 50.0833 15.1994 50.0833H35.7757C44.724 50.0833 50.0586 44.7487 50.0586 35.8004V15.1995C50.0832 6.25121 44.7486 0.916626 35.8003 0.916626ZM30.2198 36.882H18.1248C17.1169 36.882 16.2811 36.0462 16.2811 35.0383C16.2811 34.0304 17.1169 33.1945 18.1248 33.1945H30.2198C33.3665 33.1945 35.9478 30.6379 35.9478 27.4666C35.9478 24.2954 33.3911 21.7387 30.2198 21.7387H17.7561L18.3953 22.3779C19.1082 23.0908 19.1082 24.2708 18.3953 24.9837C18.0265 25.3525 17.5594 25.5245 17.0923 25.5245C16.6253 25.5245 16.1582 25.3525 15.7894 24.9837L11.9298 21.1241C11.5869 20.7772 11.3947 20.309 11.3947 19.8212C11.3947 19.3334 11.5869 18.8653 11.9298 18.5183L15.7894 14.6587C16.5023 13.9458 17.6823 13.9458 18.3953 14.6587C19.1082 15.3716 19.1082 16.5516 18.3953 17.2645L17.5594 18.0758H30.2198C35.4069 18.0758 39.6353 22.3041 39.6353 27.4912C39.6353 32.6783 35.4069 36.882 30.2198 36.882V36.882Z" fill="black"/>
</svg>
