<svg width="51" height="51" viewBox="0 0 51 51" fill="none" xmlns="http://www.w3.org/2000/svg">
<path d="M35.8003 0.916672H15.1994C6.25109 0.916672 0.916504 6.25125 0.916504 15.1996V35.7758C0.916504 44.7488 6.25109 50.0833 15.1994 50.0833H35.7757C44.724 50.0833 50.0586 44.7488 50.0586 35.8004V15.1996C50.0832 6.25125 44.7486 0.916672 35.8003 0.916672ZM30.2198 36.8821H18.1248C17.1169 36.8821 16.2811 36.0463 16.2811 35.0383C16.2811 34.0304 17.1169 33.1946 18.1248 33.1946H30.2198C33.3665 33.1946 35.9478 30.6379 35.9478 27.4667C35.9478 24.2954 33.3911 21.7388 30.2198 21.7388H17.7561L18.3953 22.3779C19.1082 23.0908 19.1082 24.2708 18.3953 24.9838C18.0265 25.3525 17.5594 25.5246 17.0923 25.5246C16.6253 25.5246 16.1582 25.3525 15.7894 24.9838L11.9298 21.1242C11.5869 20.7772 11.3947 20.3091 11.3947 19.8213C11.3947 19.3334 11.5869 18.8653 11.9298 18.5183L15.7894 14.6588C16.5023 13.9458 17.6823 13.9458 18.3953 14.6588C19.1082 15.3717 19.1082 16.5517 18.3953 17.2646L17.5594 18.0758H30.2198C35.4069 18.0758 39.6353 22.3042 39.6353 27.4913C39.6353 32.6783 35.4069 36.8821 30.2198 36.8821V36.8821Z" fill="black"/>
</svg>
