<svg width="51" height="51" viewBox="0 0 51 51" fill="none" xmlns="http://www.w3.org/2000/svg">
<path d="M35.8005 0.916626H15.1997C6.25133 0.916626 0.916748 6.25121 0.916748 15.1995V35.7758C0.916748 44.7487 6.25133 50.0833 15.1997 50.0833H35.7759C44.7242 50.0833 50.0588 44.7487 50.0588 35.8004V15.1995C50.0834 6.25121 44.7488 0.916626 35.8005 0.916626ZM30.2201 36.882H18.1251C17.1172 36.882 16.2813 36.0462 16.2813 35.0383C16.2813 34.0304 17.1172 33.1945 18.1251 33.1945H30.2201C33.3667 33.1945 35.948 30.6379 35.948 27.4666C35.948 24.2954 33.3913 21.7387 30.2201 21.7387H17.7563L18.3955 22.3779C19.1084 23.0908 19.1084 24.2708 18.3955 24.9837C18.0267 25.3525 17.5597 25.5245 17.0926 25.5245C16.6255 25.5245 16.1584 25.3525 15.7897 24.9837L11.9301 21.1241C11.5872 20.7772 11.3949 20.309 11.3949 19.8212C11.3949 19.3334 11.5872 18.8653 11.9301 18.5183L15.7897 14.6587C16.5026 13.9458 17.6826 13.9458 18.3955 14.6587C19.1084 15.3716 19.1084 16.5516 18.3955 17.2645L17.5597 18.0758H30.2201C35.4072 18.0758 39.6355 22.3041 39.6355 27.4912C39.6355 32.6783 35.4072 36.882 30.2201 36.882V36.882Z" fill="black"/>
</svg>
