<svg width="51" height="51" viewBox="0 0 51 51" fill="none" xmlns="http://www.w3.org/2000/svg">
<path d="M35.8004 0.916626H15.1995C6.25121 0.916626 0.916626 6.25121 0.916626 15.1995V35.7758C0.916626 44.7487 6.25121 50.0833 15.1995 50.0833H35.7758C44.7241 50.0833 50.0587 44.7487 50.0587 35.8004V15.1995C50.0833 6.25121 44.7487 0.916626 35.8004 0.916626ZM30.22 36.882H18.125C17.117 36.882 16.2812 36.0462 16.2812 35.0383C16.2812 34.0304 17.117 33.1945 18.125 33.1945H30.22C33.3666 33.1945 35.9479 30.6379 35.9479 27.4666C35.9479 24.2954 33.3912 21.7387 30.22 21.7387H17.7562L18.3954 22.3779C19.1083 23.0908 19.1083 24.2708 18.3954 24.9837C18.0266 25.3525 17.5595 25.5245 17.0925 25.5245C16.6254 25.5245 16.1583 25.3525 15.7895 24.9837L11.93 21.1241C11.5871 20.7772 11.3948 20.309 11.3948 19.8212C11.3948 19.3334 11.5871 18.8653 11.93 18.5183L15.7895 14.6587C16.5025 13.9458 17.6825 13.9458 18.3954 14.6587C19.1083 15.3716 19.1083 16.5516 18.3954 17.2645L17.5595 18.0758H30.22C35.407 18.0758 39.6354 22.3041 39.6354 27.4912C39.6354 32.6783 35.407 36.882 30.22 36.882V36.882Z" fill="black"/>
</svg>
